<svg width="294" height="283" viewBox="0 0 294 283" fill="none" xmlns="http://www.w3.org/2000/svg">
<g id="Rectangle 4" filter="url(#filter0_bdd_0_81)">
<path d="M57.4378 157.065C33.583 134.692 33.583 98.4185 57.4379 76.0458L102.39 33.8864C126.245 11.5136 164.921 11.5137 188.776 33.8864L236.145 78.3125C260 100.685 260 136.959 236.145 159.331L191.193 201.491C167.338 223.863 128.662 223.863 104.807 201.491L57.4378 157.065Z" fill="#0E131E"/>
<path d="M57.4378 157.065C33.583 134.692 33.583 98.4185 57.4379 76.0458L102.39 33.8864C126.245 11.5136 164.921 11.5137 188.776 33.8864L236.145 78.3125C260 100.685 260 136.959 236.145 159.331L191.193 201.491C167.338 223.863 128.662 223.863 104.807 201.491L57.4378 157.065Z" fill="#1D46A1"/>
</g>
<defs>
<filter id="filter0_bdd_0_81" x="-46.587" y="-69.0269" width="386.757" height="373.431" filterUnits="userSpaceOnUse" color-interpolation-filters="sRGB">
<feFlood flood-opacity="0" result="BackgroundImageFix"/>
<feGaussianBlur in="BackgroundImageFix" stdDeviation="43.0669"/>
<feComposite in2="SourceAlpha" operator="in" result="effect1_backgroundBlur_0_81"/>
<feColorMatrix in="SourceAlpha" type="matrix" values="0 0 0 0 0 0 0 0 0 0 0 0 0 0 0 0 0 0 127 0" result="hardAlpha"/>
<feOffset dy="10.7667"/>
<feGaussianBlur stdDeviation="13.4584"/>
<feComposite in2="hardAlpha" operator="out"/>
<feColorMatrix type="matrix" values="0 0 0 0 0 0 0 0 0 0 0 0 0 0 0 0 0 0 0.1 0"/>
<feBlend mode="normal" in2="effect1_backgroundBlur_0_81" result="effect2_dropShadow_0_81"/>
<feColorMatrix in="SourceAlpha" type="matrix" values="0 0 0 0 0 0 0 0 0 0 0 0 0 0 0 0 0 0 127 0" result="hardAlpha"/>
<feOffset dy="25"/>
<feGaussianBlur stdDeviation="19.5"/>
<feComposite in2="hardAlpha" operator="out"/>
<feColorMatrix type="matrix" values="0 0 0 0 0 0 0 0 0 0.00802402 0 0 0 0 0.0258334 0 0 0 1 0"/>
<feBlend mode="normal" in2="effect2_dropShadow_0_81" result="effect3_dropShadow_0_81"/>
<feBlend mode="normal" in="SourceGraphic" in2="effect3_dropShadow_0_81" result="shape"/>
</filter>
</defs>
</svg>
